<?xml version="1.0" encoding="UTF-8"?><svg id="Layer_1" xmlns="http://www.w3.org/2000/svg" viewBox="0 0 536.4768 49.36722"><path d="M2.87406,11.58147c1.91526-3.71708,4.51704-6.5763,7.8065-8.57913,3.2883-2.00108,6.96232-3.00235,11.02382-3.00235,3.54545,0,6.64874.71561,9.30811,2.14449,2.65938,1.43034,4.78932,3.23186,6.39158,5.40457V.77204h12.09607v47.52701h-12.09607v-6.94894c-1.54466,2.2306-3.67577,4.07488-6.39158,5.53344-2.71698,1.45797-5.84819,2.18754-9.39364,2.18754-4.0039,0-7.65-1.02977-10.9383-3.08874-3.28946-2.05897-5.89124-4.96095-7.8065-8.70712-1.91701-3.74559-2.87406-8.0497-2.87406-12.91116,0-4.80445.95705-9.06434,2.87406-12.78259ZM35.68779,17.02881c-1.14439-2.08689-2.68847-3.68915-4.63224-4.80387-1.94494-1.1153-4.03241-1.67324-6.26242-1.67324-2.2306,0-4.28956.54456-6.1769,1.63019-1.88734,1.08679-3.41804,2.67392-4.58977,4.7614-1.1729,2.08806-1.75876,4.56126-1.75876,7.42078,0,2.8601.58587,5.36181,1.75876,7.5063,1.17173,2.14449,2.71581,3.78922,4.63224,4.93303,1.91585,1.14439,3.95969,1.71571,6.13443,1.71571,2.23001,0,4.31749-.55794,6.26242-1.67324,1.94377-1.1153,3.48785-2.71581,4.63224-4.80387,1.14381-2.08689,1.71629-4.58977,1.71629-7.50688,0-2.91653-.57248-5.41766-1.71629-7.5063Z"/><path d="M102.68887.77204v47.52701h-12.09665v-6.00527c-1.54408,2.05897-3.55999,3.67519-6.04774,4.84692s-5.19018,1.75876-8.10729,1.75876c-3.71824,0-7.00654-.78542-9.86547-2.35917-2.86068-1.57259-5.10466-3.88871-6.73484-6.94894-1.6296-3.05907-2.4447-6.70517-2.4447-10.9383V.77204h12.01054v26.16529c0,3.77468.94367,6.67841,2.83101,8.7077,1.88734,2.03104,4.46119,3.04569,7.72098,3.04569,3.31622,0,5.91917-1.01465,7.8065-3.04569,1.88734-2.0293,2.83101-4.93303,2.83101-8.7077V.77204h12.09665Z"/><path d="M129.15407,2.23031c2.48775-1.42889,5.33272-2.14478,8.53607-2.14478v12.61125h-3.17427c-3.77468,0-6.62023.88724-8.53607,2.65938-1.91643,1.77331-2.87348,4.86147-2.87348,9.26506v23.67784h-12.01054V.77204h12.01054v7.37743c1.54408-2.51568,3.55999-4.48883,6.04774-5.91917Z"/><path d="M151.07256,46.0254c-3.66064-2.0293-6.5347-4.90336-8.6216-8.6216-2.08864-3.71708-3.13121-8.00664-3.13121-12.86869,0-4.8603,1.07225-9.14987,3.21674-12.86811,2.14507-3.71708,5.07498-6.59085,8.79381-8.6216,3.71708-2.02959,7.86294-3.0454,12.43933-3.0454,4.57464,0,8.72108,1.01581,12.43933,3.0454,3.71708,2.03075,6.64874,4.90452,8.79323,8.6216,2.14449,3.71824,3.21732,8.00781,3.21732,12.86811,0,4.86205-1.10192,9.15161-3.30284,12.86869-2.20267,3.71824-5.1768,6.5923-8.92238,8.6216-3.74617,2.03104-7.93508,3.04569-12.5679,3.04569-4.57639,0-8.69432-1.01465-12.3538-3.04569ZM169.56021,37.01749c1.91526-1.0577,3.4448-2.64483,4.58977-4.7614,1.14322-2.11482,1.71571-4.68867,1.71571-7.72098,0-4.51705-1.18744-7.99152-3.55999-10.42283-2.3743-2.43073-5.27628-3.6461-8.7077-3.6461s-6.30548,1.21537-8.62218,3.6461c-2.31612,2.43132-3.47389,5.90579-3.47389,10.42283,0,4.51879,1.1281,7.99326,3.38837,10.42341,2.25852,2.4319,5.10466,3.6461,8.53607,3.6461,2.173,0,4.21684-.52827,6.13385-1.58713Z"/><path d="M211.68148,2.23031c2.48775-1.42889,5.33214-2.14478,8.53607-2.14478v12.61125h-3.17427c-3.77468,0-6.62081.88724-8.53607,2.65938-1.91701,1.77331-2.87406,4.86147-2.87406,9.26506v23.67784h-12.01054V.77204h12.01054v7.37743c1.54408-2.51568,3.55999-4.48883,6.04832-5.91917Z"/><path d="M224.63511,11.58147c1.91526-3.71708,4.51704-6.5763,7.8065-8.57913,3.2883-2.00108,6.96232-3.00235,11.02382-3.00235,3.54545,0,6.64874.71561,9.30811,2.14449,2.65938,1.43034,4.78932,3.23186,6.39158,5.40457V.77204h12.09607v47.52701h-12.09607v-6.94894c-1.54408,2.2306-3.67577,4.07488-6.39158,5.53344-2.71698,1.45797-5.84819,2.18754-9.39364,2.18754-4.0039,0-7.65-1.02977-10.9383-3.08874-3.28946-2.05897-5.89124-4.96095-7.8065-8.70712-1.91701-3.74559-2.87406-8.0497-2.87406-12.91116,0-4.80445.95705-9.06434,2.87406-12.78259ZM257.44884,17.02881c-1.14439-2.08689-2.68847-3.68915-4.63224-4.80387-1.94494-1.1153-4.03241-1.67324-6.26242-1.67324-2.2306,0-4.28956.54456-6.1769,1.63019-1.88734,1.08679-3.41804,2.67392-4.58977,4.7614-1.1729,2.08806-1.75876,4.56126-1.75876,7.42078,0,2.8601.58587,5.36181,1.75876,7.5063,1.17173,2.14449,2.71581,3.78922,4.63224,4.93303,1.91585,1.14439,3.95969,1.71571,6.13443,1.71571,2.23001,0,4.31749-.55794,6.26242-1.67324,1.94377-1.1153,3.48785-2.71581,4.63224-4.80387,1.14381-2.08689,1.71629-4.58977,1.71629-7.50688,0-2.91653-.57248-5.41766-1.71629-7.5063Z"/><path d="M366.90592,25.46466c0-14.21601,10.6928-25.16038,24.72015-25.16038,5.66086,0,10.18967,1.57228,14.97071,5.03195v6.73066h-.06355c-4.27725-4.27725-9.18342-6.35331-14.71849-6.35331-10.75635,0-18.93351,8.36583-18.93351,19.49952,0,10.50478,8.36583,18.68194,18.74483,18.68194,5.53507,0,10.94437-2.39052,14.97071-6.4791h.06289v6.79355c-4.52947,3.39678-9.81298,5.15773-15.22227,5.15773-13.96445,0-24.53147-10.44189-24.53147-23.90256Z"/><path d="M415.9027,1.12187v47.42777h-5.66151V1.12187h5.66151Z"/><path d="M421.87736,1.12187h12.64308c6.54199,0,12.83241,3.8999,12.83241,12.5173,0,8.49161-5.22127,12.26573-12.01417,13.33488l15.72475,21.57559h-7.10735l-14.71915-21.32402c-.62891,0-1.19493,0-1.69806-.06289v21.38691h-5.66151V1.12187ZM430.43186,23.07414c6.35331,0,11.00791-2.38986,11.00791-9.24631,0-5.09484-3.64834-7.92559-8.42872-7.92559h-5.47218v17.10901c.88048.06289,1.88673.06289,2.89299.06289Z"/><path d="M448.16847,25.46466c0-14.21601,10.6928-25.16038,24.72015-25.16038,5.66086,0,10.18967,1.57228,14.97006,5.03195v6.73066h-.06289c-4.27725-4.27725-9.18342-6.35331-14.71849-6.35331-10.75635,0-18.93351,8.36583-18.93351,19.49952,0,10.50478,8.36583,18.68194,18.74483,18.68194,5.53507,0,10.94502-2.39052,14.97006-6.4791h.06355v6.79355c-4.52947,3.39678-9.81298,5.15773-15.22227,5.15773-13.96445,0-24.53147-10.44189-24.53147-23.90256Z"/><path d="M491.50374,1.12187h5.66151v42.39582h12.89465v5.03195h-18.55616V1.12187Z"/><path d="M512.88869,1.12187h23.58811v5.03195h-17.92659v14.65625h17.48636v4.90616h-17.48636v17.80146h17.92659v5.03195h-23.58811V1.12187Z"/><polygon points="328.8528 31.23771 322.15062 24.53553 328.85278 17.83335 325.78573 14.7663 319.08357 21.46848 312.38139 14.76631 309.31432 17.83338 316.01651 24.53556 309.31434 31.23774 312.38139 34.30479 319.08355 27.6026 325.78573 34.30478 328.8528 31.23771"/></svg>