<?xml version="1.0" encoding="UTF-8"?><svg id="Layer_1" xmlns="http://www.w3.org/2000/svg" viewBox="0 0 455.32227 82.36768"><path d="M4.82422,19.43994c3.21484-6.23926,7.58203-11.03857,13.10352-14.40039C23.44727,1.68066,29.61426,0,36.43164,0c5.95117,0,11.16016,1.20117,15.62402,3.59961,4.46387,2.40088,8.03906,5.4248,10.72852,9.07178V1.2959h20.30371v79.77588h-20.30371v-11.66406c-2.59277,3.74414-6.16992,6.83984-10.72852,9.28809-4.56055,2.44727-9.81641,3.67188-15.76758,3.67188-6.7207,0-12.84082-1.72852-18.36035-5.18457-5.52148-3.45605-9.88867-8.32715-13.10352-14.61523C1.60645,56.28076,0,49.05615,0,40.896c0-8.06445,1.60645-15.21484,4.82422-21.45605ZM59.90332,28.5835c-1.9209-3.50293-4.5127-6.19238-7.77539-8.06348-3.26465-1.87207-6.76855-2.80859-10.51172-2.80859-3.74414,0-7.2002.91406-10.36816,2.73633-3.16797,1.82422-5.7373,4.48828-7.7041,7.99219-1.96875,3.50488-2.95215,7.65625-2.95215,12.45605,0,4.80078.9834,9,2.95215,12.59961,1.9668,3.59961,4.55859,6.36035,7.77539,8.28027,3.21582,1.9209,6.64648,2.87988,10.29688,2.87988,3.74316,0,7.24707-.93652,10.51172-2.80859,3.2627-1.87207,5.85449-4.55859,7.77539-8.06348,1.91992-3.50293,2.88086-7.7041,2.88086-12.60059,0-4.89551-.96094-9.09375-2.88086-12.59961Z"/><path d="M172.36719,1.2959v79.77588h-20.30469v-10.08008c-2.5918,3.45605-5.97559,6.16895-10.15137,8.13574s-8.71191,2.95215-13.6084,2.95215c-6.24121,0-11.76074-1.31836-16.55957-3.95996-4.80176-2.63965-8.56836-6.52734-11.30469-11.66406-2.73535-5.13477-4.10352-11.25488-4.10352-18.36035V1.2959h20.16016v43.91943c0,6.33594,1.58398,11.20996,4.75195,14.61621,3.16797,3.40918,7.48828,5.1123,12.95996,5.1123,5.56641,0,9.93555-1.70312,13.10352-5.1123,3.16797-3.40625,4.75195-8.28027,4.75195-14.61621V1.2959h20.30469Z"/><path d="M216.79004,3.74365c4.17578-2.39844,8.95117-3.6001,14.32812-3.6001v21.16846h-5.32812c-6.33594,0-11.1123,1.48926-14.32812,4.46387-3.2168,2.97656-4.82324,8.16016-4.82324,15.55176v39.74414h-20.16016V1.2959h20.16016v12.3833c2.5918-4.22266,5.97559-7.53467,10.15137-9.93555Z"/><path d="M253.58105,77.25537c-6.14453-3.40625-10.96875-8.23047-14.47168-14.47168-3.50586-6.23926-5.25586-13.43945-5.25586-21.60059,0-8.1582,1.7998-15.3584,5.39941-21.59961,3.60059-6.23926,8.51855-11.06299,14.76074-14.47168,6.23926-3.40674,13.19824-5.11182,20.87988-5.11182,7.67871,0,14.63867,1.70508,20.87988,5.11182,6.23926,3.40869,11.16016,8.23242,14.75977,14.47168,3.59961,6.24121,5.40039,13.44141,5.40039,21.59961,0,8.16113-1.84961,15.36133-5.54395,21.60059-3.69727,6.24121-8.68945,11.06543-14.97656,14.47168-6.28809,3.40918-13.31934,5.1123-21.0957,5.1123-7.68164,0-14.59375-1.70312-20.73633-5.1123ZM284.61328,62.13525c3.21484-1.77539,5.78223-4.43945,7.7041-7.99219,1.91895-3.5498,2.87988-7.87012,2.87988-12.95996,0-7.58203-1.99316-13.41406-5.97559-17.49512-3.98535-4.08008-8.85645-6.12012-14.61621-6.12012s-10.58398,2.04004-14.47266,6.12012c-3.8877,4.08105-5.83105,9.91309-5.83105,17.49512,0,7.58496,1.89355,13.41699,5.6875,17.49609,3.79102,4.08203,8.56836,6.12012,14.32812,6.12012,3.64746,0,7.07812-.88672,10.2959-2.66406Z"/><path d="M355.31543,3.74365c4.17578-2.39844,8.9502-3.6001,14.32812-3.6001v21.16846h-5.32812c-6.33594,0-11.11328,1.48926-14.32812,4.46387-3.21777,2.97656-4.82422,8.16016-4.82422,15.55176v39.74414h-20.16016V1.2959h20.16016v12.3833c2.5918-4.22266,5.97559-7.53467,10.15234-9.93555Z"/><path d="M377.05859,19.43994c3.21484-6.23926,7.58203-11.03857,13.10352-14.40039,5.51953-3.35889,11.68652-5.03955,18.50391-5.03955,5.95117,0,11.16016,1.20117,15.62402,3.59961,4.46387,2.40088,8.03906,5.4248,10.72852,9.07178V1.2959h20.30371v79.77588h-20.30371v-11.66406c-2.5918,3.74414-6.16992,6.83984-10.72852,9.28809-4.56055,2.44727-9.81641,3.67188-15.76758,3.67188-6.7207,0-12.84082-1.72852-18.36035-5.18457-5.52148-3.45605-9.88867-8.32715-13.10352-14.61523-3.21777-6.28711-4.82422-13.51172-4.82422-21.67188,0-8.06445,1.60645-15.21484,4.82422-21.45605ZM432.1377,28.5835c-1.9209-3.50293-4.5127-6.19238-7.77539-8.06348-3.26465-1.87207-6.76855-2.80859-10.51172-2.80859-3.74414,0-7.2002.91406-10.36816,2.73633-3.16797,1.82422-5.7373,4.48828-7.7041,7.99219-1.96875,3.50488-2.95215,7.65625-2.95215,12.45605,0,4.80078.9834,9,2.95215,12.59961,1.9668,3.59961,4.55859,6.36035,7.77539,8.28027,3.21582,1.9209,6.64648,2.87988,10.29688,2.87988,3.74316,0,7.24707-.93652,10.51172-2.80859,3.2627-1.87207,5.85449-4.55859,7.77539-8.06348,1.91992-3.50293,2.88086-7.7041,2.88086-12.60059,0-4.89551-.96094-9.09375-2.88086-12.59961Z"/></svg>