<?xml version="1.0" encoding="UTF-8"?><svg id="Layer_1" xmlns="http://www.w3.org/2000/svg" viewBox="0 0 258.22298 283.80057"><path d="M257.08826,179.18199C219.48497,356.1381-28.9813,290.03619,2.80007,119.20064,14.26282,59.83959,64.89421,10.28182,124.54861.83252c10.6214-3.27536,22.24991,3.39539,22.19956,15.06622.00015,7.96598-5.90928,14.66283-13.80183,15.74607C-10.41877,53.49283,4.63344,270.06294,153.71203,250.64353c20.35698-4.20945,39.73611-16.08843,52.58595-32.042,38.87844-45.24125,17.97503-120.58777-42.38191-132.06891-20.73292-3.84051-44.23146,2.20129-58.85747,17.78997-26.92879,24.57781-23.98987,73.02894,10.01097,88.71939,50.9672,24.12123,80.02278-50.14195,32.55867-53.27997,5.79414,2.69217,9.7573,6.7851,10.93981,13.80016,4.07004,26.86157-34.76871,31.24146-45.8793,9.81855-20.54661-49.95095,49.5218-75.95895,79.41831-34.16748,18.30267,23.93839,13.12901,59.35308-8.31931,80.05857-54.34739,53.05058-143.55428-6.73916-127.32727-78.94152C90.85654-.7589,274.28501,50.91175,257.08826,179.18199Z"/></svg>